<svg xmlns="http://www.w3.org/2000/svg" width="48" height="48" fill="none" viewBox="0 0 48 48">
  <path fill="#DEC9AF" fill-rule="evenodd" d="M24 6c-4.889 0-5.5.02-7.42.108-1.917.088-3.226.392-4.371.838A8.816 8.816 0 0 0 9.02 9.022a8.83 8.83 0 0 0-2.076 3.187c-.442 1.145-.748 2.455-.836 4.371C6.022 18.5 6 19.11 6 24c0 4.89.02 5.5.108 7.42.088 1.917.392 3.226.838 4.371a8.816 8.816 0 0 0 2.076 3.189 8.831 8.831 0 0 0 3.187 2.076c1.145.444 2.454.748 4.37.836C18.5 41.98 19.111 42 24 42s5.5-.02 7.42-.108c1.917-.088 3.226-.392 4.371-.838a8.816 8.816 0 0 0 3.189-2.076 8.83 8.83 0 0 0 2.076-3.187c.444-1.145.748-2.454.836-4.37C41.98 29.5 42 28.889 42 24s-.02-5.5-.108-7.42c-.088-1.917-.392-3.226-.838-4.371a8.824 8.824 0 0 0-2.076-3.189 8.83 8.83 0 0 0-3.187-2.076c-1.145-.442-2.455-.748-4.371-.836C29.5 6.022 28.89 6 24 6Zm0 3.244c4.806 0 5.376.018 7.274.104 1.755.08 2.708.372 3.342.62.84.326 1.44.717 2.07 1.346a5.56 5.56 0 0 1 1.346 2.07c.247.634.54 1.587.62 3.342.086 1.898.104 2.468.104 7.274s-.018 5.376-.104 7.274c-.08 1.755-.372 2.708-.62 3.342a5.574 5.574 0 0 1-1.346 2.07 5.57 5.57 0 0 1-2.07 1.346c-.634.247-1.587.54-3.342.62-1.898.086-2.467.104-7.274.104s-5.376-.018-7.274-.104c-1.755-.08-2.708-.372-3.342-.62a5.574 5.574 0 0 1-2.07-1.346 5.578 5.578 0 0 1-1.346-2.07c-.247-.634-.54-1.587-.62-3.342-.086-1.898-.104-2.468-.104-7.274s.018-5.376.104-7.274c.08-1.755.372-2.708.62-3.342.326-.84.717-1.44 1.346-2.07a5.572 5.572 0 0 1 2.07-1.346c.634-.247 1.587-.54 3.342-.62 1.898-.086 2.468-.104 7.274-.104Z" clip-rule="evenodd"/>
  <path fill="#DEC9AF" fill-rule="evenodd" d="M24 30.006a6.005 6.005 0 1 1 0-12.01 6.005 6.005 0 0 1 0 12.01Zm0-15.258a9.252 9.252 0 1 0 0 18.504 9.252 9.252 0 0 0 0-18.504Zm11.944-.168a2.187 2.187 0 1 1-4.374 0 2.187 2.187 0 0 1 4.374 0Z" clip-rule="evenodd"/>
</svg>
