<svg width="34" height="34" viewBox="0 0 34 34" fill="none" xmlns="http://www.w3.org/2000/svg">
<rect width="34" height="34" rx="17" fill="#201C18"/>
<path fill-rule="evenodd" clip-rule="evenodd" d="M16.4415 8C15.1502 8 14.0038 8.82629 13.5955 10.0513L13.2792 11H12H11C10.4477 11 10 11.4477 10 12C10 12.5523 10.4477 13 11 13V25C11 25.5523 11.4477 26 12 26H22C22.5523 26 23 25.5523 23 25V13C23.5523 13 24 12.5523 24 12C24 11.4477 23.5523 11 23 11H22H20.7208L20.4045 10.0513C19.9962 8.82629 18.8498 8 17.5585 8H16.4415ZM21 13H20H14H13V24H21V13ZM18.6126 11L18.5072 10.6838C18.3711 10.2754 17.9889 10 17.5585 10H16.4415C16.0111 10 15.6289 10.2754 15.4928 10.6838L15.3874 11H18.6126Z" fill="#DEC9AF"/>
</svg>
